# xmcd
#
# Track frame offsets:
#	150
#	24885
#	49208
#	71992
#	86820
#	104595
#	124283
#	145574
#	154747
#	175972
#	194781
#	221038
#	243002
#	266498
#
# Disc length: 3779 seconds
#
# Revision: 0
# Processed by: cddbd v1.5.2PL0 Copyright (c) Steve Scherf et al.
# Submitted via: dBpowerAMP V4.0
#
DISCID=d10ec10e
DTITLE=Various Artist - Hangar 21 - The Story of Jazz
DYEAR=1997
DGENRE=
TTITLE0=Herbie Hancock - Maiden Voyage
TTITLE1=John Coltrane - Moment's notice
TTITLE2=Miles Davis - So What
TTITLE3=Wayne Shorter - Footprints
TTITLE4=Herbie Hancock - Cantaloupe Island
TTITLE5=Wayne Shorter - Prince of Darkness
TTITLE6=Antonio Jobim - Corcovado
TTITLE7=Joel Reiff and Alberto Canonico - Partners in Time
TTITLE8=Richie Beirach - Elm
TTITLE9=Kenny Wheeler - Five for six
TTITLE10=Arr. Jan Lorens Hartong - Round Midnight
TTITLE11=Charlie Haden - My Spanish Love Song
TTITLE12=Herbie Hancock - Chameleon
TTITLE13=Miles Davis - All Blues
EXTD=
EXTT0=
EXTT1=
EXTT2=
EXTT3=
EXTT4=
EXTT5=
EXTT6=
EXTT7=
EXTT8=
EXTT9=
EXTT10=
EXTT11=
EXTT12=
EXTT13=
PLAYORDER=
